<svg width="20" height="20" viewBox="0 0 20 20" fill="none" xmlns="http://www.w3.org/2000/svg">
<path d="M5.1415 15C5.31367 14.512 5.63295 14.0895 6.05534 13.7906C6.47772 13.4918 6.98241 13.3313 7.49984 13.3313C8.01727 13.3313 8.52195 13.4918 8.94434 13.7906C9.36672 14.0895 9.686 14.512 9.85817 15H18.3332V16.6667H9.85817C9.686 17.1546 9.36672 17.5771 8.94434 17.876C8.52195 18.1749 8.01727 18.3354 7.49984 18.3354C6.98241 18.3354 6.47772 18.1749 6.05534 17.876C5.63295 17.5771 5.31367 17.1546 5.1415 16.6667H1.6665V15H5.1415ZM10.1415 9.16665C10.3137 8.67871 10.633 8.25618 11.0553 7.95731C11.4777 7.65844 11.9824 7.49794 12.4998 7.49794C13.0173 7.49794 13.522 7.65844 13.9443 7.95731C14.3667 8.25618 14.686 8.67871 14.8582 9.16665H18.3332V10.8333H14.8582C14.686 11.3213 14.3667 11.7438 13.9443 12.0427C13.522 12.3415 13.0173 12.502 12.4998 12.502C11.9824 12.502 11.4777 12.3415 11.0553 12.0427C10.633 11.7438 10.3137 11.3213 10.1415 10.8333H1.6665V9.16665H10.1415ZM5.1415 3.33332C5.31367 2.84538 5.63295 2.42285 6.05534 2.12398C6.47772 1.82511 6.98241 1.66461 7.49984 1.66461C8.01727 1.66461 8.52195 1.82511 8.94434 2.12398C9.36672 2.42285 9.686 2.84538 9.85817 3.33332H18.3332V4.99999H9.85817C9.686 5.48793 9.36672 5.91046 8.94434 6.20933C8.52195 6.5082 8.01727 6.6687 7.49984 6.6687C6.98241 6.6687 6.47772 6.5082 6.05534 6.20933C5.63295 5.91046 5.31367 5.48793 5.1415 4.99999H1.6665V3.33332H5.1415ZM7.49984 4.99999C7.72085 4.99999 7.93281 4.91219 8.08909 4.75591C8.24537 4.59963 8.33317 4.38767 8.33317 4.16665C8.33317 3.94564 8.24537 3.73368 8.08909 3.5774C7.93281 3.42112 7.72085 3.33332 7.49984 3.33332C7.27882 3.33332 7.06686 3.42112 6.91058 3.5774C6.7543 3.73368 6.6665 3.94564 6.6665 4.16665C6.6665 4.38767 6.7543 4.59963 6.91058 4.75591C7.06686 4.91219 7.27882 4.99999 7.49984 4.99999ZM12.4998 10.8333C12.7209 10.8333 12.9328 10.7455 13.0891 10.5892C13.2454 10.433 13.3332 10.221 13.3332 9.99999C13.3332 9.77897 13.2454 9.56701 13.0891 9.41073C12.9328 9.25445 12.7209 9.16665 12.4998 9.16665C12.2788 9.16665 12.0669 9.25445 11.9106 9.41073C11.7543 9.56701 11.6665 9.77897 11.6665 9.99999C11.6665 10.221 11.7543 10.433 11.9106 10.5892C12.0669 10.7455 12.2788 10.8333 12.4998 10.8333ZM7.49984 16.6667C7.72085 16.6667 7.93281 16.5789 8.08909 16.4226C8.24537 16.2663 8.33317 16.0543 8.33317 15.8333C8.33317 15.6123 8.24537 15.4003 8.08909 15.2441C7.93281 15.0878 7.72085 15 7.49984 15C7.27882 15 7.06686 15.0878 6.91058 15.2441C6.7543 15.4003 6.6665 15.6123 6.6665 15.8333C6.6665 16.0543 6.7543 16.2663 6.91058 16.4226C7.06686 16.5789 7.27882 16.6667 7.49984 16.6667Z" fill="#B9FD02"/>
</svg>
